<svg width="120" height="120" viewBox="0 0 120 120" fill="none" xmlns="http://www.w3.org/2000/svg">
<path d="M119.033 47.4562L100.208 36.588C99.6096 36.2416 98.8713 36.2416 98.2726 36.588L89.7926 41.4838C89.6608 41.2672 89.4846 41.0732 89.2654 40.9167L85.6348 38.3218C84.7655 37.7005 83.5575 37.9012 82.935 38.7714C82.3132 39.6398 82.5146 40.8488 83.3844 41.4708L86.2576 43.5246L79.4482 47.4562C78.8492 47.801 78.4805 48.441 78.4805 49.1317V70.8684C78.4805 70.961 78.5038 71.0496 78.5165 71.1401L78.3679 71.2463C77.4984 71.8685 77.2974 73.0775 77.919 73.9478C78.2971 74.4752 78.8917 74.7568 79.495 74.7568C79.8849 74.7568 80.2781 74.6396 80.6193 74.3965L81.5289 73.7459L98.2729 83.4123C98.5722 83.5856 98.9064 83.6721 99.2406 83.6721C99.5748 83.6721 99.9089 83.5856 100.208 83.4123L119.033 72.5441C119.632 72.1993 120.001 71.5593 120.001 70.8686V49.1317C120.001 48.441 119.632 47.8007 119.033 47.4562ZM97.3051 78.3845L84.808 71.1697C85.1619 70.5354 85.1492 69.7304 84.6988 69.1005C84.157 68.3436 83.171 68.0951 82.3514 68.4528V52.4838L97.3051 61.1174V78.3845ZM116.13 69.7511L101.176 78.3845V61.1165L112.555 54.5484C113.48 54.0128 113.797 52.8295 113.263 51.904C112.728 50.9788 111.544 50.6597 110.619 51.1953L99.2399 57.7653L84.2866 49.1317L99.2403 40.4983L116.13 50.249V69.7511ZM79.7929 83.7844L72.9838 79.8525L75.8563 77.7987C76.726 77.1777 76.9275 75.9687 76.3057 75.0996C75.6841 74.2294 74.4742 74.0303 73.6059 74.6505L69.9753 77.2456C69.7561 77.4012 69.5801 77.5964 69.4485 77.8117L60.9681 72.9159C60.3696 72.5695 59.6313 72.5695 59.0326 72.9159L50.5521 77.8117C50.4208 77.5964 50.2446 77.4012 50.0254 77.2456L46.3951 74.6505C45.525 74.0303 44.3172 74.2294 43.695 75.0996C43.0734 75.9687 43.2746 77.1777 44.1444 77.7987L47.0171 79.8525L40.2082 83.7844C39.609 84.1292 39.2405 84.7689 39.2405 85.4599V107.196C39.2405 107.887 39.609 108.527 40.2082 108.872L59.0328 119.74C59.3322 119.914 59.6664 120 60.0006 120C60.3348 120 60.6689 119.914 60.9683 119.74L79.7932 108.872C80.3922 108.527 80.7607 107.887 80.7607 107.196V85.4599C80.7604 84.7689 80.3917 84.1292 79.7929 83.7844ZM43.1114 88.8122L58.0651 97.4456V114.713L43.1114 106.079V88.8122ZM76.8895 106.079L61.9358 114.713V97.4454L73.3142 90.8763C74.2399 90.3415 74.5568 89.1584 74.0224 88.232C73.4877 87.3067 72.3027 86.9874 71.3785 87.5242L60.0003 94.0938L45.0466 85.4601L60.0003 76.8264L76.8895 86.5774V106.079ZM39.3816 74.3967C39.7228 74.6399 40.1163 74.757 40.5059 74.757C41.1094 74.757 41.7041 74.4754 42.082 73.948C42.7035 73.0778 42.5023 71.8688 41.633 71.2465L41.4832 71.1404C41.4962 71.0499 41.5192 70.9613 41.5192 70.8686V49.1317C41.5192 48.4408 41.1505 47.8007 40.5515 47.4562L33.7426 43.5246L36.616 41.4708C37.4858 40.8488 37.6872 39.641 37.0657 38.7714C36.4439 37.9012 35.2354 37.7005 34.3656 38.3218L30.7345 40.9167C30.5156 41.0732 30.3394 41.2672 30.2073 41.4838L21.7273 36.588C21.1288 36.2416 20.3904 36.2416 19.7917 36.588L0.967724 47.4562C0.368508 47.801 0 48.441 0 49.1317V70.8684C0 71.5593 0.368508 72.1993 0.967724 72.5438L19.7917 83.4121C20.091 83.5854 20.4252 83.6718 20.7596 83.6718C21.0938 83.6718 21.4282 83.5854 21.7273 83.4121L38.472 73.7444L39.3816 74.3967ZM20.7596 40.4985L37.6488 50.2492V68.4528C36.829 68.0963 35.8437 68.3436 35.3021 69.1005C34.8522 69.7304 34.839 70.5356 35.1929 71.1687L22.6951 78.3845V61.1174L34.0737 54.5484C34.9994 54.0128 35.3165 52.8295 34.7819 51.904C34.2472 50.9788 33.062 50.6597 32.1382 51.1953L20.7596 57.7653L5.80586 49.1317L20.7596 40.4985ZM3.87066 52.485L18.8242 61.1174V78.3845L3.87066 69.7511V52.485ZM33.6891 67.9486C33.3112 68.4763 32.7166 68.7579 32.113 68.7579C31.7232 68.7579 31.3304 68.6417 30.9893 68.3973L27.3587 65.8022C26.4887 65.1799 26.2875 63.9712 26.9093 63.1031C27.5313 62.2316 28.7403 62.0319 29.6091 62.6532L33.2397 65.2481C34.1095 65.8694 34.3109 67.0781 33.6891 67.9486ZM86.3118 67.9486C85.69 67.0781 85.8915 65.8694 86.7612 65.2481L90.3918 62.6532C91.2599 62.0319 92.4699 62.2316 93.0917 63.1031C93.7132 63.9712 93.512 65.1799 92.6422 65.8022L89.0117 68.3973C88.6712 68.6417 88.2778 68.7579 87.8879 68.7579C87.2843 68.7579 86.6899 68.4766 86.3118 67.9486ZM72.9291 31.6195C72.5512 32.1481 71.9566 32.4297 71.353 32.4297C70.9634 32.4297 70.5706 32.3126 70.2295 32.0694L66.5987 29.4745C65.7289 28.8522 65.5277 27.6432 66.1493 26.7742C66.772 25.9049 67.9798 25.7039 68.8491 26.3243L72.4799 28.9194C73.3495 29.5415 73.5509 30.7504 72.9291 31.6195ZM40.2545 38.4289C40.6444 38.4289 41.0376 38.3107 41.3783 38.0676L42.2884 37.417L59.0328 47.0841C59.3322 47.2575 59.6664 47.3441 60.0006 47.3441C60.3348 47.3441 60.6689 47.2575 60.9683 47.0841L77.7125 37.417L78.6221 38.0676C78.9633 38.3107 79.3565 38.4289 79.7464 38.4289C80.3499 38.4289 80.9446 38.1475 81.3224 37.6186C81.9442 36.7496 81.7428 35.5408 80.8735 34.9185L80.7249 34.8122C80.7376 34.7217 80.7607 34.6331 80.7607 34.5407V12.804C80.7607 12.1119 80.3919 11.473 79.7932 11.1276L60.9681 0.259096C60.3696 -0.0863654 59.6313 -0.0863654 59.0326 0.259096L40.208 11.1273C39.6087 11.4728 39.2402 12.1119 39.2402 12.8037V34.5404C39.2402 34.6329 39.2635 34.7215 39.276 34.812L39.1274 34.9183C38.2576 35.5406 38.0564 36.7493 38.678 37.6177C39.0563 38.1477 39.651 38.4289 40.2545 38.4289ZM58.0651 24.7885V42.0556L45.568 34.8408C45.9219 34.2067 45.9089 33.4023 45.4588 32.7723C44.9172 32.0144 43.9298 31.7664 43.1114 32.1236V16.1549L58.0651 24.7885ZM60.0003 4.17032L76.8895 13.9201V32.1244C76.0695 31.7662 75.0837 32.0151 74.5424 32.7721C74.092 33.4013 74.079 34.2075 74.4329 34.8405L61.9358 42.0554V24.7885L73.3142 18.2204C74.2399 17.6851 74.5568 16.5015 74.0224 15.5761C73.4877 14.6508 72.3027 14.3318 71.3785 14.8674L60.0003 21.4376L45.0466 12.804L60.0003 4.17032ZM47.0713 31.6195C46.4496 30.7504 46.651 29.5415 47.5207 28.9194L51.1518 26.3243C52.0221 25.7039 53.2306 25.9049 53.8519 26.7742C54.4734 27.6432 54.2723 28.8522 53.4025 29.4745L49.7712 32.0694C49.4303 32.3126 49.0368 32.4297 48.6474 32.4297C48.0439 32.4297 47.4494 32.1481 47.0713 31.6195Z" fill="white"/>
</svg>
