<svg width="120" height="120" viewBox="0 0 120 120" fill="none" xmlns="http://www.w3.org/2000/svg">
<path d="M22.3871 19.3431L19.2556 15.9531C18.1086 17.0123 16.9917 18.1315 15.9302 19.2808L19.3202 22.4123C20.2986 21.3531 21.3302 20.3215 22.3871 19.3431Z" fill="black"/>
<path d="M16.4979 25.7214L12.8794 22.8575C11.9148 24.076 10.9848 25.3567 10.1079 26.6629L13.9433 29.2314C14.751 28.0244 15.6118 26.8429 16.4979 25.7214Z" fill="black"/>
<path d="M8.02843 40.8094L3.69689 39.2102C3.15689 40.6756 2.66766 42.1825 2.24304 43.6894L6.68766 44.9379C7.07766 43.551 7.52996 42.1617 8.02843 40.8094Z" fill="black"/>
<path d="M5.67488 49.156L1.14488 48.2675C0.840265 49.816 0.595649 51.3783 0.415649 52.9083L4.99873 53.4483C5.16488 52.036 5.39334 50.5891 5.67488 49.156Z" fill="black"/>
<path d="M11.6721 32.9308L7.64752 30.6715C6.88367 32.0308 6.16137 33.4408 5.50598 34.8623L9.69214 36.8008C10.3014 35.4877 10.966 34.1862 11.6721 32.9308Z" fill="black"/>
<path d="M44.8981 6.69677L43.6404 2.25677C42.1358 2.6837 40.6289 3.17293 39.1681 3.71524L40.7719 8.04216C42.1219 7.5437 43.5089 7.09139 44.8981 6.69677Z" fill="black"/>
<path d="M53.4049 5.00559L52.8649 0.422516C51.3118 0.607131 49.7472 0.854054 48.2172 1.15867L49.1195 5.68405C50.5295 5.40252 51.9718 5.17405 53.4049 5.00559Z" fill="black"/>
<path d="M36.771 9.70861L34.8279 5.52246C33.4087 6.18246 31.9987 6.90246 30.6418 7.66631L32.9033 11.6886C34.1564 10.9825 35.4556 10.3178 36.771 9.70861Z" fill="black"/>
<path d="M29.2039 13.9616L26.6354 10.1262C25.3454 10.9916 24.067 11.9216 22.8323 12.8977L25.6939 16.5185C26.8316 15.6208 28.0154 14.76 29.2039 13.9616Z" fill="black"/>
<path d="M60 120C60.8054 120 61.6015 119.984 62.4 119.951L62.2154 115.341C61.4815 115.371 60.7408 115.385 60 115.385C29.4623 115.385 4.61539 90.5376 4.61539 59.9999C4.61539 59.2568 4.63154 58.5161 4.65923 57.7799L0.0484613 57.6045C0.0161536 58.3984 0 59.1968 0 59.9999C0 93.083 26.9146 120 60 120Z" fill="black"/>
<path d="M71.7831 118.842L70.8808 114.316C69.4708 114.598 68.0285 114.826 66.5955 114.995L67.1355 119.578C68.6908 119.396 70.2531 119.146 71.7831 118.842Z" fill="black"/>
<path d="M108.328 87.0695L112.352 89.3287C113.116 87.9695 113.838 86.5595 114.494 85.1379L110.308 83.1995C109.698 84.5125 109.034 85.8141 108.328 87.0695Z" fill="black"/>
<path d="M90.7965 106.039L93.365 109.874C94.655 109.009 95.9334 108.079 97.168 107.102L94.3065 103.482C93.1688 104.379 91.985 105.24 90.7965 106.039Z" fill="black"/>
<path d="M75.1016 113.303L76.3593 117.743C77.8639 117.316 79.3709 116.827 80.8316 116.284L79.2278 111.958C77.8778 112.456 76.4909 112.908 75.1016 113.303Z" fill="black"/>
<path d="M114.326 70.8438L118.856 71.7323C119.16 70.1838 119.405 68.6215 119.585 67.0915L115.002 66.5515C114.836 67.9638 114.607 69.4107 114.326 70.8438Z" fill="black"/>
<path d="M111.971 79.1907L116.303 80.7899C116.843 79.3246 117.332 77.8176 117.757 76.3107L113.312 75.0623C112.922 76.4492 112.47 77.8384 111.971 79.1907Z" fill="black"/>
<path d="M97.6131 100.657L100.745 104.047C101.892 102.988 103.008 101.869 104.07 100.719L100.68 97.5879C99.7016 98.6471 98.67 99.6787 97.6131 100.657Z" fill="black"/>
<path d="M83.2292 110.291L85.1723 114.478C86.5915 113.818 88.0015 113.098 89.3584 112.334L87.0969 108.311C85.8438 109.018 84.5446 109.682 83.2292 110.291Z" fill="black"/>
<path d="M103.502 94.2786L107.121 97.1424C108.085 95.924 109.015 94.6432 109.892 93.337L106.057 90.7686C105.249 91.9755 104.388 93.157 103.502 94.2786Z" fill="black"/>
<path d="M60 0C59.1946 0 58.3984 0.0161539 57.6 0.0484616L57.7846 4.65923C58.5184 4.62923 59.2592 4.61538 60 4.61538C90.5377 4.61538 115.385 29.4623 115.385 60C115.385 60.7431 115.368 61.4838 115.341 62.22L119.952 62.3954C119.984 61.6015 120 60.8031 120 60C120 26.9169 93.0854 0 60 0Z" fill="black"/>
<path d="M23.0768 59.9999C23.0768 80.3583 39.6414 96.9229 59.9999 96.9229C80.3583 96.9229 96.9229 80.3583 96.9229 59.9999C96.9229 39.6414 80.3583 23.0768 59.9999 23.0768C39.6414 23.0768 23.0768 39.6414 23.0768 59.9999ZM59.9999 27.6922C77.8152 27.6922 92.3075 42.1845 92.3075 59.9999C92.3075 77.8152 77.8152 92.3075 59.9999 92.3075C42.1845 92.3075 27.6922 77.8152 27.6922 59.9999C27.6922 42.1845 42.1845 27.6922 59.9999 27.6922Z" fill="black"/>
<path d="M39.8932 76.8301L76.81 39.9133L80.0731 43.1764L43.1563 80.0932L39.8932 76.8301Z" fill="black"/>
<path d="M48.4616 57.6923C53.5524 57.6923 57.6924 53.5523 57.6924 48.4616C57.6924 43.3708 53.5524 39.2308 48.4616 39.2308C43.3708 39.2308 39.2308 43.3708 39.2308 48.4616C39.2308 53.5523 43.3708 57.6923 48.4616 57.6923ZM48.4616 43.8462C51.007 43.8462 53.077 45.9162 53.077 48.4616C53.077 51.007 51.007 53.077 48.4616 53.077C45.9162 53.077 43.8462 51.007 43.8462 48.4616C43.8462 45.9162 45.9162 43.8462 48.4616 43.8462Z" fill="black"/>
<path d="M71.5383 62.3076C66.4476 62.3076 62.3076 66.4476 62.3076 71.5384C62.3076 76.6291 66.4476 80.7691 71.5383 80.7691C76.6291 80.7691 80.7691 76.6291 80.7691 71.5384C80.7691 66.4476 76.6291 62.3076 71.5383 62.3076ZM71.5383 76.1537C68.9929 76.1537 66.9229 74.0837 66.9229 71.5384C66.9229 68.993 68.9929 66.923 71.5383 66.923C74.0837 66.923 76.1537 68.993 76.1537 71.5384C76.1537 74.0837 74.0837 76.1537 71.5383 76.1537Z" fill="black"/>
<path d="M22.4005 65.2915L15.4774 58.3684C14.5751 57.4661 13.1166 57.4661 12.2143 58.3684L5.29126 65.2915L8.55434 68.5545L11.8382 65.2707C14.4759 89.5199 35.0605 108.461 59.9997 108.461C86.7205 108.461 108.461 86.723 108.461 59.9999C108.461 33.2769 86.7205 11.5384 59.9997 11.5384V16.1538C84.1774 16.1538 103.846 35.8222 103.846 59.9999C103.846 84.1776 84.1774 103.846 59.9997 103.846C37.8759 103.846 19.5759 87.3599 16.6197 66.0368L19.1374 68.5545L22.4005 65.2915Z" fill="black"/>
</svg>
