<svg width="120" height="120" viewBox="0 0 120 120" fill="none" xmlns="http://www.w3.org/2000/svg">
<g clip-path="url(#clip0_891_260)">
<path d="M102.426 17.5742C78.9949 -5.85811 41.0056 -5.85811 17.5742 17.5742C-5.85808 41.0056 -5.85808 78.9949 17.5742 102.426C41.0056 125.859 78.9949 125.859 102.426 102.426C125.859 78.9949 125.859 41.0056 102.426 17.5742ZM100.979 98.1594L95.3055 92.4885C112.219 74.1393 112.219 45.8807 95.3055 27.5324L100.979 21.8606C120.989 43.3577 120.989 76.6623 100.979 98.1594ZM60.0002 103.992C39.0001 104.003 20.9174 89.1766 16.8127 68.5817C12.7079 47.9867 23.7245 27.3605 43.1234 19.319C62.5232 11.2775 84.9011 18.0614 96.5708 35.5202C108.241 52.98 105.95 76.2512 91.1011 91.1011C82.8672 99.3721 71.671 104.014 60.0002 103.992ZM98.1497 19.0212L92.4788 24.695C74.1296 7.78105 45.8709 7.78105 27.5217 24.695L21.8508 19.0212C43.348 -0.988867 76.6525 -0.988867 98.1497 19.0212ZM19.0213 21.8508L24.695 27.5217C7.78108 45.8709 7.78108 74.1295 24.695 92.4788L19.0213 98.1496C-0.988837 76.6525 -0.988837 43.3479 19.0213 21.8508ZM21.8508 100.979L27.5217 95.3054C45.8709 112.219 74.1296 112.219 92.4788 95.3054L98.1497 100.979C76.6525 120.989 43.348 120.989 21.8508 100.979Z" fill="black"/>
<path d="M85.8636 45.3288C85.8099 45.1579 85.7269 44.9968 85.6175 44.8543C85.558 44.7703 85.4906 44.6902 85.4174 44.617C85.3695 44.5672 85.3187 44.5204 85.265 44.4764C85.2231 44.4432 85.1918 44.4012 85.1479 44.371L61.1522 27.3916C60.4589 26.9014 59.5323 26.9014 58.8401 27.3916L34.8444 44.371C34.8004 44.4012 34.7682 44.4432 34.7262 44.4764C34.6842 44.5106 34.6227 44.5672 34.5729 44.617C34.4997 44.6902 34.4323 44.7703 34.3728 44.8543C34.3308 44.908 34.2927 44.9646 34.2585 45.0222C34.2048 45.1199 34.1599 45.2214 34.1248 45.3268C34.1043 45.3825 34.0789 45.4343 34.0623 45.4909C34.0213 45.6578 34.0018 45.8297 34.0047 46.0025V73.9975C34.0047 74.6458 34.3191 75.2541 34.8483 75.629L58.844 92.6084C58.9241 92.6533 59.0061 92.6934 59.09 92.7285C59.1584 92.7686 59.2287 92.8037 59.3019 92.834C59.7501 93.0214 60.2539 93.0214 60.7021 92.834C60.7753 92.8037 60.8456 92.7686 60.9139 92.7285C60.9979 92.6934 61.0799 92.6533 61.16 92.6084L85.1557 75.629C85.6829 75.2531 85.9964 74.6448 85.9954 73.9975V46.0025C85.9944 45.8297 85.971 45.6578 85.9251 45.4909C85.9095 45.4343 85.8831 45.3825 85.8636 45.3288ZM60 31.4729L80.5344 46.0025L60 60.5321L39.4656 46.0025L60 31.4729ZM38.004 49.87L58.0004 64.0169V87.1133L38.004 72.9616V49.87ZM81.9961 72.9616L61.9997 87.1114V64.0149L81.9961 49.868V72.9616Z" fill="black"/>
</g>
<defs>
<clipPath id="clip0_891_260">
<rect width="120" height="120" fill="white"/>
</clipPath>
</defs>
</svg>
